HIERARCHY
ROOT Hips
{
 OFFSET 0.000000 0.000000 0.000000
 CHANNELS 6 Xposition Yposition Zposition Yrotation Xrotation Zrotation
 JOINT Chest
 {
  OFFSET 0.000000 9.585900 0.002600
  CHANNELS 3 Yrotation Xrotation Zrotation
  JOINT Chest2
  {
   OFFSET 0.000000 9.601200 -0.005300
   CHANNELS 3 Yrotation Xrotation Zrotation
   JOINT Chest3
   {
    OFFSET 0.000000 9.561800 0.000000
    CHANNELS 3 Yrotation Xrotation Zrotation
    JOINT Chest4
    {
     OFFSET 0.000000 9.552100 0.000000
     CHANNELS 3 Yrotation Xrotation Zrotation
     JOINT Neck
     {
      OFFSET 0.000000 14.453000 0.000000
      CHANNELS 3 Yrotation Xrotation Zrotation
      JOINT Head
      {
       OFFSET 0.000000 8.936500 -0.011300
       CHANNELS 3 Yrotation Xrotation Zrotation
       End Site
       {
        OFFSET 0.000000 17.073600 -0.006000
       }
      }
     }
     JOINT RightCollar
     {
      OFFSET -2.921100 9.558500 0.000000
      CHANNELS 3 Yrotation Xrotation Zrotation
      JOINT RightShoulder
      {
       OFFSET -13.519700 0.000000 0.000000
       CHANNELS 3 Yrotation Xrotation Zrotation
       JOINT RightElbow
       {
        OFFSET 0.000000 -29.696600 0.000000
        CHANNELS 3 Yrotation Xrotation Zrotation
        JOINT RightWrist
        {
         OFFSET 0.000000 -24.004700 0.000000
         CHANNELS 3 Yrotation Xrotation Zrotation
         End Site
         {
          OFFSET 0.000000 -17.728500 0.000000
         }
        }
       }
      }
     }
     JOINT LeftCollar
     {
      OFFSET 2.921100 9.558500 0.000000
      CHANNELS 3 Yrotation Xrotation Zrotation
      JOINT LeftShoulder
      {
       OFFSET 13.519700 0.000000 0.000000
       CHANNELS 3 Yrotation Xrotation Zrotation
       JOINT LeftElbow
       {
        OFFSET 0.000000 -29.696600 0.000000
        CHANNELS 3 Yrotation Xrotation Zrotation
        JOINT LeftWrist
        {
         OFFSET 0.000000 -24.004700 0.000000
         CHANNELS 3 Yrotation Xrotation Zrotation
         End Site
         {
          OFFSET 0.000000 -17.728500 0.000000
         }
        }
       }
      }
     }
    }
   }
  }
 }
 JOINT RightHip
 {
  OFFSET -7.771700 -0.012900 -0.001300
  CHANNELS 3 Yrotation Xrotation Zrotation
  JOINT RightKnee
  {
   OFFSET 0.000000 -40.869800 0.001200
   CHANNELS 3 Yrotation Xrotation Zrotation
   JOINT RightAnkle
   {
    OFFSET 0.000000 -39.717900 0.002100
    CHANNELS 3 Yrotation Xrotation Zrotation
    JOINT RightToe
    {
     OFFSET 0.000000 -4.965400 11.033500
     CHANNELS 3 Yrotation Xrotation Zrotation
     End Site
     {
      OFFSET 0.000000 -1.423100 5.872300
     }
    }
   }
  }
 }
 JOINT LeftHip
 {
  OFFSET 7.771700 -0.012900 -0.001300
  CHANNELS 3 Yrotation Xrotation Zrotation
  JOINT LeftKnee
  {
   OFFSET 0.000000 -40.869800 0.001200
   CHANNELS 3 Yrotation Xrotation Zrotation
   JOINT LeftAnkle
   {
    OFFSET 0.000000 -39.717900 0.002100
    CHANNELS 3 Yrotation Xrotation Zrotation
    JOINT LeftToe
    {
     OFFSET 0.000000 -4.965400 11.033500
     CHANNELS 3 Yrotation Xrotation Zrotation
     End Site
     {
      OFFSET 0.000000 -1.423100 5.872300
     }
    }
   }
  }
 }
}
MOTION
Frames: 8
Frame Time: 0.008333
-64.505235 63.055323 14.078361 166.534154 -49.249439 -2.147376 5.859084 25.592611 3.568435 0.912248 4.256448 0.254554 1.501007 6.754189 0.423744 4.882397 20.979205 2.012344 3.121229 14.133999 2.007987 5.079883 -9.552845 2.592734 7.002475 3.499410 4.810678 -1.254274 -10.467228 -11.896264 -122.724275 -63.371855 154.279073 15.038796 1.165733 -5.999068 -9.039980 0.442348 0.868315 -0.318226 -5.652441 13.490181 136.012509 -78.920366 -158.186768 8.253648 0.457821 8.709225 -6.943722 -11.884723 7.210990 -28.452200 74.808794 -26.054095 2.140152 -11.827340 -2.222819 -0.507188 0.802534 -0.135077 -7.639684 -18.135555 -3.282242 12.074718 62.199386 5.917106 -0.232299 -2.382685 0.608241 -0.145907 -0.521693 0.052353
-64.509105 63.058135 14.073732 166.574830 -49.256035 -2.166420 5.866110 25.588140 3.563036 0.913982 4.254260 0.254109 1.504252 6.751845 0.423905 4.901820 20.969675 2.005684 3.133503 14.160608 2.046203 5.104889 -9.511565 2.640002 7.021058 3.485486 4.809230 -1.258833 -10.437365 -11.920656 -122.684482 -63.413518 154.259834 15.091677 1.273301 -5.955043 -9.043751 0.443544 0.874322 -0.379637 -5.674499 13.535225 135.962051 -78.917917 -158.229341 8.251722 0.285475 8.345267 -6.937351 -11.871433 7.216340 -28.471231 74.802375 -26.089038 2.125087 -11.841189 -2.193725 -0.512742 0.795397 -0.154203 -7.633068 -18.120329 -3.286006 12.026081 62.194227 5.879741 -0.254393 -2.411994 0.567655 -0.134126 -0.532623 0.064084
-64.512912 63.060670 14.069569 166.610878 -49.263845 -2.180529 5.895124 25.578130 3.561837 0.934155 4.246562 0.249403 1.471815 6.761630 0.435537 4.911799 20.965044 2.004405 3.152473 14.183180 2.074268 5.129589 -9.470304 2.686095 7.045664 3.467255 4.798537 -1.260815 -10.403497 -11.945504 -122.647537 -63.457562 154.238669 15.153482 1.382300 -5.901436 -9.038871 0.436305 0.872820 -0.439311 -5.694683 13.576905 135.905925 -78.919863 -158.261491 8.252612 0.105450 7.968281 -6.926644 -11.856814 7.218217 -28.504795 74.793673 -26.135383 2.123144 -11.860797 -2.176989 -0.525082 0.795021 -0.162583 -7.626639 -18.110675 -3.286828 12.026074 62.193525 5.872397 -0.296106 -2.413778 0.573850 -0.125947 -0.551056 0.055073
-64.517546 63.061598 14.066898 166.642869 -49.262565 -2.186607 5.911642 25.565833 3.552189 0.910102 4.252220 0.255246 1.492188 6.753784 0.429329 4.922888 20.959829 2.004303 3.170800 14.206228 2.101524 5.153390 -9.428086 2.730873 7.056558 3.454206 4.797545 -1.249776 -10.369653 -11.979644 -122.615235 -63.503197 154.219731 15.218954 1.497685 -5.839083 -9.035711 0.425841 0.871204 -0.498780 -5.711499 13.613697 135.848399 -78.925946 -158.290817 8.261465 -0.078654 7.576418 -6.913335 -11.853241 7.214259 -28.540224 74.784818 -26.177786 2.114689 -11.884214 -2.167553 -0.530022 0.803665 -0.160263 -7.616768 -18.109843 -3.286853 12.072576 62.184352 5.893732 -0.352383 -2.405676 0.596557 -0.128205 -0.574217 0.036600
-64.520630 63.062895 14.064666 166.664877 -49.267664 -2.192683 5.939492 25.559256 3.550709 0.885568 4.257768 0.262824 1.494007 6.751896 0.428221 4.950278 20.947178 1.995106 3.163872 14.226032 2.133353 5.164766 -9.406650 2.753123 7.065996 3.441754 4.798026 -1.273251 -10.340233 -11.977022 -122.582352 -63.574339 154.237271 15.285337 1.625103 -5.768984 -9.034872 0.414904 0.871101 -0.550414 -5.702544 13.646051 135.853924 -78.912003 -158.387362 8.269929 -0.252653 7.176005 -6.894802 -11.843246 7.221107 -28.567109 74.776528 -26.222830 2.124743 -11.908066 -2.155793 -0.565454 0.821042 -0.143216 -7.595124 -18.100023 -3.281628 12.006002 62.182162 5.832911 -0.384706 -2.404374 0.592382 -0.103888 -0.594262 0.031415
-64.522827 63.062268 14.064744 166.729144 -49.259333 -2.237170 5.932400 25.542170 3.550163 0.923949 4.243626 0.252255 1.444685 6.766313 0.449928 4.976766 20.932121 1.983868 3.158808 14.247854 2.167539 5.226022 -9.342444 2.794453 7.072815 3.429740 4.801854 -1.243637 -10.293922 -12.020231 -122.559136 -63.613018 154.209422 15.356572 1.765054 -5.690573 -9.034318 0.405451 0.875694 -0.605536 -5.727572 13.669591 135.717553 -78.920876 -158.343651 8.268232 -0.402148 6.777958 -6.906454 -11.844774 7.230453 -28.621212 74.763054 -26.270157 2.103921 -11.917376 -2.158602 -0.546811 0.815493 -0.140873 -7.618155 -18.109037 -3.266247 12.008256 62.177150 5.821300 -0.421910 -2.391743 0.596895 -0.099821 -0.608964 0.027063
-64.525872 63.061592 14.064843 166.771737 -49.254354 -2.258625 5.934584 25.529091 3.539739 0.926300 4.239573 0.251749 1.450623 6.763126 0.452300 4.987211 20.919662 1.980488 3.209200 14.280057 2.188376 5.226567 -9.289074 2.864746 7.057437 3.434405 4.826707 -1.186254 -10.258220 -12.075744 -122.529136 -63.656888 154.174568 15.436065 1.920033 -5.600081 -9.032447 0.399951 0.884658 -0.651433 -5.749720 13.682488 135.579610 -78.949349 -158.259940 8.261698 -0.534406 6.345526 -6.904867 -11.846979 7.232161 -28.647364 74.759540 -26.295002 2.079755 -11.933180 -2.155649 -0.526827 0.804035 -0.161757 -7.631253 -18.115915 -3.262193 12.010950 62.171443 5.812497 -0.452778 -2.375329 0.601787 -0.095706 -0.623779 0.019463
-64.536437 63.060810 14.063004 166.817336 -49.252365 -2.234536 5.911144 25.525864 3.475980 0.928590 4.234560 0.250997 1.455882 6.754973 0.451903 4.999646 20.908692 1.978840 3.235757 14.307813 2.213052 5.202029 -9.269409 2.907966 7.041541 3.441794 4.852603 -1.144714 -10.230179 -12.107986 -122.481587 -63.717291 154.139843 15.525437 2.090946 -5.491965 -9.040116 0.406547 0.901234 -0.681937 -5.769169 13.686466 135.510688 -78.937430 -158.304687 8.237464 -0.610049 5.999579 -6.896863 -11.854820 7.184830 -28.691102 74.764905 -26.349982 2.033233 -11.941467 -2.142268 -0.496545 0.790127 -0.154538 -7.631693 -18.124176 -3.307139 12.013526 62.161437 5.796783 -0.503605 -2.370166 0.603005 -0.070245 -0.622053 0.023584
